<svg xmlns="http://www.w3.org/2000/svg" width="211.329" height="39.197" viewBox="0 0 211.329 39.197">
  <defs>
    <style>
      .cls-1 {
        fill: #ff8a3c;
      }

      .cls-2 {
        fill: #3c4981;
      }
    </style>
  </defs>
  <g id="savage-logo" transform="translate(-24.078 -24.327)">
    <g id="E" transform="translate(24.077 24.327)">
      <path id="Path_5" data-name="Path 5" class="cls-1" d="M563.449,117.993l-2.408,8.062H525.8a141.028,141.028,0,0,0,18.356-2.949c8.617-1.86,19.3-5.113,19.3-5.113" transform="translate(-362.796 -87.563)"/>
      <path id="Path_6" data-name="Path 6" class="cls-2" d="M567.664,51.194l1.891-5.32-31.845-.011L526.859,76.378a148.415,148.415,0,0,0,18.011-2.922c1.946-.42,4-.912,6.007-1.42l-12.465,0,2.946-8.286,16.7.005,1.892-5.32-16.7,0,2.574-7.239Z" transform="translate(-363.513 -38.866)"/>
    </g>
    <path id="G" class="cls-2" d="M450.419,73.807a21.31,21.31,0,0,1-10.44,3.049c-9.716,0-15.54-2.8-12.779-10.559l4-11.251c2.761-7.762,10.569-10.55,20.286-10.547,10.224,0,14.479,3.538,12.3,10.69l-10.006,0c1.443-4.056-.558-5.365-4.183-5.366-3.988,0-6.867.957-8.108,4.445l-4.559,12.821c-1.241,3.489.956,4.449,4.944,4.451,3.771,0,6.68-1.655,7.642-4.359l.682-1.918-7.033,0,1.768-4.971,17.04.007-5.738,16.135-5.221,0Z" transform="translate(-271.69 -13.618)"/>
    <path id="A" class="cls-2" d="M323.982,65.266l9.785,0-.329-12.735h-.145L314.943,77.211l-9.644,0,24.176-31.48,12.835,0,1.42,31.49-9.571,0-.181-6.63-7.464,0Z" transform="translate(-189.856 -14.447)"/>
    <path id="V" class="cls-2" d="M255.212,45.744l9.862,0,.539,22.505h.145l17.138-22.5,9.789,0-24.539,31.48-11.384,0Z" transform="translate(-156.042 -14.459)"/>
    <path id="A-2" data-name="A" class="cls-2" d="M152.343,65.266l9.785,0-.33-12.735h-.145L143.3,77.211l-9.644,0,24.176-31.48,12.835,0,1.42,31.49-9.571,0-.181-6.63-7.464,0Z" transform="translate(-73.98 -14.447)"/>
    <path id="S" class="cls-2" d="M35.633,50.6,24.078,51.873S30.747,64.365,47.1,63.479,67.559,49.89,63.29,44.787c-4.6-5.5-20.2-5.675-18.074-10.158,2.118-4.46,13.8-4.317,16.427.715L72.3,33.863s-6.935-12.491-25.416-8.88c-6.416,1.254-13.378,6.162-12.716,13.1.556,5.826,8.931,7.791,13.161,8.775,10.336,2.405,5.467,6.57,3.22,7.507A12.291,12.291,0,0,1,35.633,50.6Z"/>
    <path id="registered_trademark" class="cls-2" d="M662.844,47.244a2.241,2.241,0,1,1-2.277,2.235A2.236,2.236,0,0,1,662.844,47.244Zm0,.362a1.879,1.879,0,1,0,1.83,1.873A1.823,1.823,0,0,0,662.844,47.606Zm-.477,3.172h-.4V48.192h.991c.616,0,.918.229.918.737a.674.674,0,0,1-.677.713l.737,1.136H663.5l-.689-1.124h-.447Zm0-1.45h.471c.483,0,.64-.139.64-.423,0-.248-.121-.387-.574-.387h-.538Z" transform="translate(-429.703 -15.471)"/>
  </g>
</svg>
